<svg width="18" height="8" viewBox="0 0 18 8" fill="none" xmlns="http://www.w3.org/2000/svg">
<path d="M0.774906 0.149902C0.940667 0.149902 1.09964 0.21575 1.21685 0.332961C1.33406 0.450171 1.39991 0.609142 1.39991 0.774902C1.39991 0.869069 1.42032 0.959069 1.46116 1.0449L1.51741 1.1374C3.70491 4.1374 5.81741 5.6624 8.57991 5.7749L8.89991 5.78115C11.7874 5.78115 13.9999 4.25615 16.2749 1.14365C16.342 1.03126 16.383 0.905247 16.3949 0.774902C16.3949 0.609142 16.4608 0.450171 16.578 0.332961C16.6952 0.21575 16.8541 0.149902 17.0199 0.149902C17.1857 0.149902 17.3446 0.21575 17.4618 0.332961C17.5791 0.450171 17.6449 0.609142 17.6449 0.774902C17.6449 1.1724 17.5174 1.5599 17.2837 1.88115C14.7837 5.29365 12.2212 7.03115 8.89616 7.03115C5.57116 7.03115 2.99616 5.29365 0.508656 1.88115L0.406156 1.7249C0.237692 1.43669 0.149229 1.10873 0.149906 0.774902C0.149906 0.609142 0.215754 0.450171 0.332964 0.332961C0.450175 0.21575 0.609146 0.149902 0.774906 0.149902Z" fill="#7A756A" stroke="#7A756A" stroke-width="0.3"/>
</svg>
