<svg width="37" height="34" viewBox="0 0 37 34" fill="none" xmlns="http://www.w3.org/2000/svg">
<path d="M3.33333 33.3333C2.41667 33.3333 1.63194 33.0069 0.979167 32.3542C0.326389 31.7014 0 30.9167 0 30V10C0 9.08333 0.326389 8.29861 0.979167 7.64583C1.63194 6.99306 2.41667 6.66667 3.33333 6.66667H8.58333L11.6667 3.33333H21.6667V6.66667H13.125L10.0833 10H3.33333V30H30V15H33.3333V30C33.3333 30.9167 33.0069 31.7014 32.3542 32.3542C31.7014 33.0069 30.9167 33.3333 30 33.3333H3.33333ZM30 10V6.66667H26.6667V3.33333H30V0H33.3333V3.33333H36.6667V6.66667H33.3333V10H30ZM16.6667 27.5C18.75 27.5 20.5208 26.7708 21.9792 25.3125C23.4375 23.8542 24.1667 22.0833 24.1667 20C24.1667 17.9167 23.4375 16.1458 21.9792 14.6875C20.5208 13.2292 18.75 12.5 16.6667 12.5C14.5833 12.5 12.8125 13.2292 11.3542 14.6875C9.89583 16.1458 9.16667 17.9167 9.16667 20C9.16667 22.0833 9.89583 23.8542 11.3542 25.3125C12.8125 26.7708 14.5833 27.5 16.6667 27.5ZM16.6667 24.1667C15.5 24.1667 14.5139 23.7639 13.7083 22.9583C12.9028 22.1528 12.5 21.1667 12.5 20C12.5 18.8333 12.9028 17.8472 13.7083 17.0417C14.5139 16.2361 15.5 15.8333 16.6667 15.8333C17.8333 15.8333 18.8194 16.2361 19.625 17.0417C20.4306 17.8472 20.8333 18.8333 20.8333 20C20.8333 21.1667 20.4306 22.1528 19.625 22.9583C18.8194 23.7639 17.8333 24.1667 16.6667 24.1667Z" fill="#414844"/>
</svg>
