<svg width="13" height="13" viewBox="0 0 13 13" fill="none" xmlns="http://www.w3.org/2000/svg">
<path d="M8.625 1.32927L9.05 0.721767C9.2 0.496767 9.125 0.204267 8.875 0.0692667C8.625 -0.0657332 8.3 0.00176685 8.15 0.226767L7.675 0.901767C7.2 0.744267 6.7 0.654267 6.2 0.654267C5.675 0.654267 5.175 0.744267 4.725 0.901767L4.25 0.226767C4.1 0.00176685 3.775 -0.0657332 3.525 0.0692667C3.275 0.204267 3.2 0.496767 3.35 0.721767L3.775 1.32927C2.625 2.02677 1.85 3.21927 1.85 4.56927V9.47427C1.85 10.1943 2.5 10.7793 3.3 10.7793H4.275L4.3 12.4443C4.3 12.7143 4.55 12.9168 4.825 12.9168C5.125 12.9168 5.35 12.6918 5.35 12.4443L5.325 10.7793H7L7.025 12.4443C7.025 12.7143 7.275 12.9168 7.55 12.9168C7.85 12.9168 8.075 12.6918 8.075 12.4443L8.05 10.7793H9.05C9.85 10.7793 10.5 10.1943 10.5 9.47427V4.56927C10.55 3.21927 9.8 2.02677 8.625 1.32927ZM6.2 1.62177C7.825 1.62177 9.2 2.70177 9.45 4.09677H2.95C3.2 2.67927 4.575 1.62177 6.2 1.62177ZM9.1 9.83427H3.3C3.075 9.83427 2.9 9.67677 2.9 9.47427V5.04177H9.5V9.47427C9.5 9.67677 9.3 9.83427 9.1 9.83427ZM12.4 4.99677V8.48427C12.4 8.75427 12.15 8.95677 11.875 8.95677C11.6 8.95677 11.35 8.73177 11.35 8.48427V4.99677C11.35 4.72677 11.6 4.52427 11.875 4.52427C12.15 4.52427 12.4 4.72677 12.4 4.99677ZM1.075 4.99677V8.48427C1.075 8.75427 0.825 8.95677 0.55 8.95677C0.275 8.95677 0 8.75427 0 8.48427V4.99677C0 4.72677 0.25 4.52427 0.525 4.52427C0.8 4.52427 1.075 4.72677 1.075 4.99677Z" fill="white"/>
</svg>
