<svg width="48" height="48" viewBox="0 0 48 48" fill="none" xmlns="http://www.w3.org/2000/svg">
<rect width="48" height="48" rx="24" fill="#1B4332" fill-opacity="0.1"/>
<path d="M22.5391 32.1654C23.278 32.1654 23.9002 31.9126 24.4057 31.407C24.9113 30.9015 25.1641 30.2793 25.1641 29.5404V25.1654H28.6641V22.832H23.9974V27.3529C23.7835 27.1973 23.555 27.0855 23.312 27.0174C23.0689 26.9494 22.8113 26.9154 22.5391 26.9154C21.8002 26.9154 21.178 27.1681 20.6724 27.6737C20.1668 28.1793 19.9141 28.8015 19.9141 29.5404C19.9141 30.2793 20.1668 30.9015 20.6724 31.407C21.178 31.9126 21.8002 32.1654 22.5391 32.1654ZM16.9974 35.6654C16.3557 35.6654 15.8064 35.4369 15.3495 34.9799C14.8925 34.523 14.6641 33.9737 14.6641 33.332V14.6654C14.6641 14.0237 14.8925 13.4744 15.3495 13.0174C15.8064 12.5605 16.3557 12.332 16.9974 12.332H26.3307L33.3307 19.332V33.332C33.3307 33.9737 33.1023 34.523 32.6453 34.9799C32.1884 35.4369 31.6391 35.6654 30.9974 35.6654H16.9974ZM25.1641 20.4987V14.6654H16.9974V33.332H30.9974V20.4987H25.1641ZM16.9974 14.6654V20.4987V14.6654V20.4987V33.332V14.6654Z" fill="#012D1D"/>
</svg>
