<svg width="64" height="64" viewBox="0 0 64 64" fill="none" xmlns="http://www.w3.org/2000/svg">
<rect width="64" height="64" rx="32" fill="#FEE2E2"/>
<path d="M31.9974 38.668C32.3752 38.668 32.6918 38.5402 32.9474 38.2846C33.203 38.0291 33.3307 37.7124 33.3307 37.3346C33.3307 36.9569 33.203 36.6402 32.9474 36.3846C32.6918 36.1291 32.3752 36.0013 31.9974 36.0013C31.6196 36.0013 31.303 36.1291 31.0474 36.3846C30.7918 36.6402 30.6641 36.9569 30.6641 37.3346C30.6641 37.7124 30.7918 38.0291 31.0474 38.2846C31.303 38.5402 31.6196 38.668 31.9974 38.668ZM30.6641 33.3346H33.3307V25.3346H30.6641V33.3346ZM31.9974 45.3346C30.153 45.3346 28.4196 44.9846 26.7974 44.2846C25.1752 43.5846 23.7641 42.6346 22.5641 41.4346C21.3641 40.2346 20.4141 38.8235 19.7141 37.2013C19.0141 35.5791 18.6641 33.8457 18.6641 32.0013C18.6641 30.1569 19.0141 28.4235 19.7141 26.8013C20.4141 25.1791 21.3641 23.768 22.5641 22.568C23.7641 21.368 25.1752 20.418 26.7974 19.718C28.4196 19.018 30.153 18.668 31.9974 18.668C33.8418 18.668 35.5752 19.018 37.1974 19.718C38.8196 20.418 40.2307 21.368 41.4307 22.568C42.6307 23.768 43.5807 25.1791 44.2807 26.8013C44.9807 28.4235 45.3307 30.1569 45.3307 32.0013C45.3307 33.8457 44.9807 35.5791 44.2807 37.2013C43.5807 38.8235 42.6307 40.2346 41.4307 41.4346C40.2307 42.6346 38.8196 43.5846 37.1974 44.2846C35.5752 44.9846 33.8418 45.3346 31.9974 45.3346ZM31.9974 42.668C34.9752 42.668 37.4974 41.6346 39.5641 39.568C41.6307 37.5013 42.6641 34.9791 42.6641 32.0013C42.6641 29.0235 41.6307 26.5013 39.5641 24.4346C37.4974 22.368 34.9752 21.3346 31.9974 21.3346C29.0196 21.3346 26.4974 22.368 24.4307 24.4346C22.3641 26.5013 21.3307 29.0235 21.3307 32.0013C21.3307 34.9791 22.3641 37.5013 24.4307 39.568C26.4974 41.6346 29.0196 42.668 31.9974 42.668Z" fill="#D32F2F"/>
</svg>
