<svg width="17" height="17" viewBox="0 0 17 17" fill="none" xmlns="http://www.w3.org/2000/svg">
<path d="M5 17V15.3333H6.66667V13.6667H1.66667C1.20833 13.6667 0.815972 13.5035 0.489583 13.1771C0.163194 12.8507 0 12.4583 0 12V3.66667C0 3.20833 0.163194 2.81597 0.489583 2.48958C0.815972 2.16319 1.20833 2 1.66667 2H15C15.4583 2 15.8507 2.16319 16.1771 2.48958C16.5035 2.81597 16.6667 3.20833 16.6667 3.66667V12C16.6667 12.4583 16.5035 12.8507 16.1771 13.1771C15.8507 13.5035 15.4583 13.6667 15 13.6667H10V15.3333H11.6667V17H5ZM1.66667 12H15V3.66667H1.66667V12ZM1.66667 12V3.66667V12Z" fill="white"/>
</svg>
