<svg width="37" height="37" viewBox="0 0 37 37" fill="none" xmlns="http://www.w3.org/2000/svg">
<path d="M18.5002 33.9163C27.0146 33.9163 33.9168 27.0141 33.9168 18.4997C33.9168 9.98528 27.0146 3.08301 18.5002 3.08301C9.98577 3.08301 3.0835 9.98528 3.0835 18.4997C3.0835 27.0141 9.98577 33.9163 18.5002 33.9163Z" stroke="#1B4332" stroke-width="2" stroke-linecap="round" stroke-linejoin="round"/>
<path d="M18.5 21.2754C21.0543 21.2754 23.125 19.2047 23.125 16.6504C23.125 14.0961 21.0543 12.0254 18.5 12.0254C15.9457 12.0254 13.875 14.0961 13.875 16.6504C13.875 19.2047 15.9457 21.2754 18.5 21.2754Z" stroke="#1B4332" stroke-width="2" stroke-linecap="round" stroke-linejoin="round"/>
<path d="M11.1001 31.45V27.6717C11.1001 26.4658 11.412 25.3094 11.9671 24.4567C12.5222 23.604 13.2751 23.125 14.0601 23.125H22.9401C23.7251 23.125 24.478 23.604 25.0331 24.4567C25.5882 25.3094 25.9001 26.4658 25.9001 27.6717V31.45" stroke="#1B4332" stroke-width="2" stroke-linecap="round" stroke-linejoin="round"/>
</svg>
