<svg width="37" height="37" viewBox="0 0 37 37" fill="none" xmlns="http://www.w3.org/2000/svg">
  <!-- Левая страница -->
  <path d="M4 6C4 6 9 5 14 7C16 7.8 17.5 9 18.5 10V31C17 29.5 15 28.5 13 28C10 27.2 6 27.5 4 28V6Z" stroke="#7A756A" stroke-width="2" stroke-linejoin="round"/>
  <!-- Правая страница -->
  <path d="M33 6C33 6 28 5 23 7C21 7.8 19.5 9 18.5 10V31C20 29.5 22 28.5 24 28C27 27.2 31 27.5 33 28V6Z" stroke="#7A756A" stroke-width="2" stroke-linejoin="round"/>
  <!-- Линии левой страницы -->
  <line x1="8" y1="12" x2="16" y2="13.5" stroke="#7A756A" stroke-width="1.5" stroke-linecap="round"/>
  <line x1="8" y1="15" x2="16" y2="16.5" stroke="#7A756A" stroke-width="1.5" stroke-linecap="round"/>
  <line x1="8" y1="18" x2="16" y2="19.5" stroke="#7A756A" stroke-width="1.5" stroke-linecap="round"/>
  <line x1="8" y1="21" x2="16" y2="22.5" stroke="#7A756A" stroke-width="1.5" stroke-linecap="round"/>
  <line x1="8" y1="24" x2="16" y2="25.5" stroke="#7A756A" stroke-width="1.5" stroke-linecap="round"/>
  <!-- Линии правой страницы -->
  <line x1="29" y1="12" x2="21" y2="13.5" stroke="#7A756A" stroke-width="1.5" stroke-linecap="round"/>
  <line x1="29" y1="15" x2="21" y2="16.5" stroke="#7A756A" stroke-width="1.5" stroke-linecap="round"/>
  <line x1="29" y1="18" x2="21" y2="19.5" stroke="#7A756A" stroke-width="1.5" stroke-linecap="round"/>
  <line x1="29" y1="21" x2="21" y2="22.5" stroke="#7A756A" stroke-width="1.5" stroke-linecap="round"/>
  <line x1="29" y1="24" x2="21" y2="25.5" stroke="#7A756A" stroke-width="1.5" stroke-linecap="round"/>
  <!-- Корешок -->
  <path d="M18.5 10C18.5 10 18 30 18.5 31" stroke="#7A756A" stroke-width="2" stroke-linecap="round"/>
  <!-- Нижняя дуга -->
  <path d="M4 28C6 27 10 26.5 14 27.5C16 28 17.5 29 18.5 31C19.5 29 21 28 23 27.5C27 26.5 31 27 33 28" stroke="#7A756A" stroke-width="2" stroke-linecap="round"/>
</svg>