<svg width="24" height="24" viewBox="0 0 24 24" fill="none" xmlns="http://www.w3.org/2000/svg">
<path d="M12.4089 5.82422C11.7069 6.61622 11.2589 7.32022 10.9939 7.99022L13.1469 10.1462C13.2406 10.24 13.2933 10.3671 13.2933 10.4997C13.2933 10.6323 13.2406 10.7595 13.1469 10.8532L10.8539 13.1462C10.7602 13.24 10.7075 13.3671 10.7075 13.4997C10.7075 13.6323 10.7602 13.7595 10.8539 13.8532L11.9999 15.0002" stroke="#1B4332" stroke-width="2" stroke-linecap="round" stroke-linejoin="round"/>
<path d="M13.508 20.3139C13.3217 20.5279 13.0919 20.6998 12.834 20.8182C12.5762 20.9366 12.296 20.9987 12.0123 21.0005C11.7285 21.0023 11.4476 20.9437 11.1883 20.8286C10.9289 20.7135 10.697 20.5445 10.508 20.3329L5 15.0009C3.5 13.5009 2 11.8009 2 9.5009C1.99982 8.38802 2.33725 7.30126 2.96771 6.38418C3.59817 5.46711 4.49201 4.76286 5.53114 4.36448C6.57028 3.96609 7.70582 3.89231 8.78777 4.15289C9.86972 4.41346 10.8472 4.99612 11.591 5.8239C11.7019 5.92751 11.848 5.98522 11.9998 5.9854C12.1516 5.98559 12.2978 5.92824 12.409 5.8249C13.1528 4.99718 14.1301 4.41454 15.212 4.15394C16.2938 3.89334 17.4293 3.96704 18.4684 4.3653C19.5075 4.76356 20.4013 5.46764 21.0319 6.38456C21.6624 7.30148 22 8.3881 22 9.5009C22 11.7909 20.5 13.5009 19 15.0009L13.508 20.3139Z" stroke="#1B4332" stroke-width="2" stroke-linecap="round" stroke-linejoin="round"/>
</svg>
