<svg width="56" height="56" viewBox="0 0 56 56" fill="none" xmlns="http://www.w3.org/2000/svg">
<rect width="56" height="56" rx="28" fill="#FEE2E2"/>
<path d="M22.1667 38.5C21.5251 38.5 20.9758 38.2715 20.5188 37.8146C20.0619 37.3576 19.8334 36.8083 19.8334 36.1667V21H18.6667V18.6667H24.5001V17.5H31.5001V18.6667H37.3334V21H36.1667V36.1667C36.1667 36.8083 35.9383 37.3576 35.4813 37.8146C35.0244 38.2715 34.4751 38.5 33.8334 38.5H22.1667ZM33.8334 21H22.1667V36.1667H33.8334V21ZM24.5001 33.8333H26.8334V23.3333H24.5001V33.8333ZM29.1667 33.8333H31.5001V23.3333H29.1667V33.8333ZM22.1667 21V36.1667V21Z" fill="#D32F2F"/>
</svg>
