<svg width="14" height="14" viewBox="0 0 14 14" fill="none" xmlns="http://www.w3.org/2000/svg">
<g clip-path="url(#clip0_1394_2133)">
<path d="M7.23857 3.39746C6.82907 3.85946 6.56774 4.27013 6.41316 4.66096L7.66907 5.91863C7.72375 5.97332 7.75447 6.0475 7.75447 6.12484C7.75447 6.20218 7.72375 6.27635 7.66907 6.33104L6.33149 7.66863C6.27681 7.72332 6.24609 7.7975 6.24609 7.87484C6.24609 7.95218 6.27681 8.02635 6.33149 8.08104L6.99999 8.75013" stroke="#434343" stroke-linecap="round" stroke-linejoin="round"/>
<path d="M7.87975 11.8494C7.77105 11.9743 7.63704 12.0746 7.48661 12.1436C7.33618 12.2127 7.17277 12.2489 7.00725 12.25C6.84173 12.251 6.67788 12.2169 6.52658 12.1497C6.37529 12.0826 6.24001 11.984 6.12975 11.8605L2.91675 8.7502C2.04175 7.8752 1.16675 6.88353 1.16675 5.54187C1.16664 4.89268 1.36347 4.25874 1.73124 3.72378C2.09901 3.18882 2.62042 2.77801 3.22658 2.54562C3.83274 2.31323 4.49514 2.27019 5.12628 2.42219C5.75742 2.57419 6.3276 2.91408 6.7615 3.39695C6.82621 3.45739 6.91142 3.49105 6.99997 3.49116C7.08851 3.49127 7.17381 3.45781 7.23867 3.39753C7.67253 2.9147 8.24266 2.57483 8.87374 2.42281C9.50482 2.27079 10.1672 2.31378 10.7733 2.5461C11.3794 2.77842 11.9009 3.18913 12.2687 3.724C12.6365 4.25887 12.8334 4.89273 12.8334 5.54187C12.8334 6.8777 11.9584 7.8752 11.0834 8.7502L7.87975 11.8494Z" stroke="#434343" stroke-linecap="round" stroke-linejoin="round"/>
</g>
<defs>
<clipPath id="clip0_1394_2133">
<rect width="14" height="14" fill="white"/>
</clipPath>
</defs>
</svg>
