<svg width="15" height="16" viewBox="0 0 15 16" fill="none" xmlns="http://www.w3.org/2000/svg">
<path d="M1.5 15.75C1.0875 15.75 0.734375 15.6031 0.440625 15.3094C0.146875 15.0156 0 14.6625 0 14.25V5.25C0 4.9375 0.084375 4.65625 0.253125 4.40625C0.421875 4.15625 0.65 3.975 0.9375 3.8625L10.425 0L10.9125 1.2375L4.725 3.75H13.5C13.9125 3.75 14.2656 3.89688 14.5594 4.19063C14.8531 4.48438 15 4.8375 15 5.25V14.25C15 14.6625 14.8531 15.0156 14.5594 15.3094C14.2656 15.6031 13.9125 15.75 13.5 15.75H1.5ZM1.5 14.25H13.5V9H1.5V14.25ZM4.5 13.5C5.025 13.5 5.46875 13.3188 5.83125 12.9563C6.19375 12.5938 6.375 12.15 6.375 11.625C6.375 11.1 6.19375 10.6562 5.83125 10.2937C5.46875 9.93125 5.025 9.75 4.5 9.75C3.975 9.75 3.53125 9.93125 3.16875 10.2937C2.80625 10.6562 2.625 11.1 2.625 11.625C2.625 12.15 2.80625 12.5938 3.16875 12.9563C3.53125 13.3188 3.975 13.5 4.5 13.5ZM1.5 7.5H10.5V6H12V7.5H13.5V5.25H1.5V7.5ZM1.5 14.25V9V14.25Z" fill="#414844"/>
</svg>
