<svg width="19" height="15" viewBox="0 0 19 15" fill="none" xmlns="http://www.w3.org/2000/svg">
<path d="M1.8125 10.1633C1.10417 9.24333 0.75 8.7825 0.75 7.41667C0.75 6.05 1.10417 5.59083 1.8125 4.67C3.22667 2.83333 5.59833 0.75 9.08333 0.75C12.5683 0.75 14.94 2.83333 16.3542 4.67C17.0625 5.59167 17.4167 6.05083 17.4167 7.41667C17.4167 8.78333 17.0625 9.2425 16.3542 10.1633C14.94 12 12.5683 14.0833 9.08333 14.0833C5.59833 14.0833 3.22667 12 1.8125 10.1633Z" stroke="#7A756A" stroke-width="1.5"/>
<path d="M11.5835 7.4165C11.5835 8.07955 11.3201 8.71543 10.8513 9.18427C10.3824 9.65311 9.74654 9.9165 9.0835 9.9165C8.42045 9.9165 7.78457 9.65311 7.31573 9.18427C6.84689 8.71543 6.5835 8.07955 6.5835 7.4165C6.5835 6.75346 6.84689 6.11758 7.31573 5.64874C7.78457 5.1799 8.42045 4.9165 9.0835 4.9165C9.74654 4.9165 10.3824 5.1799 10.8513 5.64874C11.3201 6.11758 11.5835 6.75346 11.5835 7.4165Z" stroke="#7A756A" stroke-width="1.5"/>
</svg>
