<svg width="15" height="20" viewBox="0 0 15 20" fill="none" xmlns="http://www.w3.org/2000/svg">
<path d="M7.41667 1C8.02778 3.44444 9.25 5.43056 11.0833 6.95833C12.9167 8.48611 13.8333 10.1667 13.8333 12C13.8333 13.7018 13.1573 15.3339 11.9539 16.5373C10.7506 17.7406 9.11847 18.4167 7.41667 18.4167C5.71486 18.4167 4.08276 17.7406 2.8794 16.5373C1.67604 15.3339 1 13.7018 1 12C1 11.0083 1.32165 10.0434 1.91667 9.25C1.91667 9.85779 2.15811 10.4407 2.58788 10.8705C3.01765 11.3002 3.60055 11.5417 4.20833 11.5417C4.81612 11.5417 5.39902 11.3002 5.82879 10.8705C6.25856 10.4407 6.5 9.85779 6.5 9.25C6.5 7.41667 5.125 6.5 5.125 4.66667C5.125 3.44444 5.88889 2.22222 7.41667 1Z" fill="#1B4332" stroke="#1B4332" stroke-width="2" stroke-linecap="round" stroke-linejoin="round"/>
</svg>
