<svg width="15" height="15" viewBox="0 0 15 15" fill="none" xmlns="http://www.w3.org/2000/svg">
<path d="M13.4625 9.375H10.625C10.2935 9.375 9.97554 9.5067 9.74112 9.74112C9.5067 9.97554 9.375 10.2935 9.375 10.625V13.4625" stroke="#414844" stroke-linecap="round" stroke-linejoin="round"/>
<path d="M4.375 2.08594V3.12344C4.375 3.62072 4.57254 4.09763 4.92417 4.44926C5.27581 4.80089 5.75272 4.99844 6.25 4.99844C6.58152 4.99844 6.89946 5.13013 7.13388 5.36455C7.3683 5.59897 7.5 5.91692 7.5 6.24844C7.5 6.93594 8.0625 7.49844 8.75 7.49844C9.08152 7.49844 9.39946 7.36674 9.63388 7.13232C9.8683 6.8979 10 6.57996 10 6.24844C10 5.56094 10.5625 4.99844 11.25 4.99844H13.2313" stroke="#414844" stroke-linecap="round" stroke-linejoin="round"/>
<path d="M6.875 13.7188V11.25C6.875 10.9185 6.7433 10.6005 6.50888 10.3661C6.27446 10.1317 5.95652 10 5.625 10C5.29348 10 4.97554 9.8683 4.74112 9.63388C4.5067 9.39946 4.375 9.08152 4.375 8.75V8.125C4.375 7.79348 4.2433 7.47554 4.00888 7.24112C3.77446 7.0067 3.45652 6.875 3.125 6.875H1.28125" stroke="#414844" stroke-linecap="round" stroke-linejoin="round"/>
<path d="M7.5 13.75C10.9518 13.75 13.75 10.9518 13.75 7.5C13.75 4.04822 10.9518 1.25 7.5 1.25C4.04822 1.25 1.25 4.04822 1.25 7.5C1.25 10.9518 4.04822 13.75 7.5 13.75Z" stroke="#414844" stroke-linecap="round" stroke-linejoin="round"/>
</svg>
