<svg width="23" height="24" viewBox="0 0 23 24" fill="none" xmlns="http://www.w3.org/2000/svg">
<path d="M21.62 12.2422C21.62 11.4947 21.5529 10.7759 21.4283 10.0859H11.5V14.1684H17.1733C16.9242 15.4814 16.1767 16.593 15.0554 17.3405V19.9951H18.4767C20.47 18.1551 21.62 15.4526 21.62 12.2422Z" fill="white"/>
<path d="M11.4968 22.5448C14.343 22.5448 16.7293 21.6056 18.4734 19.9956L15.0522 17.341C14.113 17.9735 12.9151 18.3569 11.4968 18.3569C8.75594 18.3569 6.42719 16.5073 5.59344 14.0156H2.08594V16.7373C3.82052 20.1777 7.37594 22.5448 11.4968 22.5448Z" fill="white"/>
<path d="M5.59927 14.0009C5.38844 13.3684 5.26385 12.6976 5.26385 11.998C5.26385 11.2984 5.38844 10.6276 5.59927 9.9951V7.27344H2.09177C1.37302 8.69177 0.960938 10.2922 0.960938 11.998C0.960938 13.7039 1.37302 15.3043 2.09177 16.7226L5.59927 14.0009Z" fill="white"/>
<path d="M11.4968 5.65844C13.0493 5.65844 14.4293 6.1951 15.5314 7.2301L18.5501 4.21135C16.7197 2.50552 14.343 1.46094 11.4968 1.46094C7.37594 1.46094 3.82052 3.82802 2.08594 7.27802L5.59344 9.99969C6.42719 7.50802 8.75594 5.65844 17.0934 5.65844H11.4968Z" fill="white"/>
</svg>
