<svg width="11" height="19" viewBox="0 0 11 19" fill="none" xmlns="http://www.w3.org/2000/svg">
<path d="M8.75 0H2.08333C0.933333 0 0 0.933333 0 2.08333V16.25C0 17.4 0.933333 18.3333 2.08333 18.3333H8.75C9.9 18.3333 10.8333 17.4 10.8333 16.25V2.08333C10.8333 0.933333 9.9 0 8.75 0ZM5.41667 17.5C4.725 17.5 4.16667 16.9417 4.16667 16.25C4.16667 15.5583 4.725 15 5.41667 15C6.10833 15 6.66667 15.5583 6.66667 16.25C6.66667 16.9417 6.10833 17.5 5.41667 17.5ZM9.16667 14.1667H1.66667V2.5H9.16667V14.1667Z" fill="#1B4332"/>
</svg>
