<svg width="13" height="11" viewBox="0 0 13 11" fill="none" xmlns="http://www.w3.org/2000/svg">
<path d="M7.21492 10.0192C7.10619 10.144 6.97214 10.2443 6.82167 10.3134C6.67119 10.3825 6.50774 10.4188 6.34217 10.4198C6.1766 10.4209 6.0127 10.3867 5.86137 10.3195C5.71003 10.2523 5.57472 10.1537 5.46442 10.0302L2.2505 6.91903C1.37525 6.04378 0.5 5.05183 0.5 3.70978C0.499894 3.06041 0.696783 2.42628 1.06466 1.89117C1.43253 1.35606 1.95409 0.94513 2.56042 0.712673C3.16676 0.480216 3.82935 0.437166 4.46066 0.589209C5.09198 0.741251 5.66232 1.08123 6.09635 1.56425C6.16108 1.6247 6.24632 1.65837 6.33489 1.65848C6.42346 1.65859 6.50877 1.62513 6.57365 1.56483C7.00764 1.08185 7.57793 0.741886 8.2092 0.589826C8.84046 0.437767 9.503 0.480768 10.1093 0.713152C10.7156 0.945536 11.2372 1.35637 11.6051 1.89139C11.973 2.42642 12.17 3.06046 12.17 3.70978C12.17 5.04599 11.2948 6.04378 10.4195 6.91903L7.21492 10.0192Z" stroke="#434343" stroke-linecap="round" stroke-linejoin="round"/>
</svg>
