<svg width="22" height="20" viewBox="0 0 22 20" fill="none" xmlns="http://www.w3.org/2000/svg">
<path d="M12.508 18.2729C12.3217 18.4995 12.0919 18.6815 11.834 18.8069C11.5762 18.9322 11.296 18.9981 11.0123 19C10.7285 19.0019 10.4476 18.9398 10.1883 18.8179C9.92893 18.6961 9.69703 18.5171 9.508 18.2931L4 12.6476C2.5 11.0594 1 9.25949 1 6.82428C0.999818 5.64598 1.33725 4.49533 1.96771 3.52434C2.59817 2.55335 3.49201 1.80771 4.53114 1.3859C5.57028 0.964101 6.70582 0.885984 7.78777 1.16187C8.86972 1.43776 9.84717 2.05468 10.591 2.93112C10.7019 3.04082 10.848 3.10192 10.9998 3.10212C11.1516 3.10232 11.2978 3.04159 11.409 2.93218C12.1528 2.0558 13.1301 1.43891 14.212 1.16299C15.2938 0.887075 16.4293 0.965103 17.4684 1.38677C18.5075 1.80845 19.4013 2.55392 20.0319 3.52475C20.6624 4.49557 21 5.64607 21 6.82428C21 9.24891 19.5 11.0594 18 12.6476L12.508 18.2729Z" fill="#D32F2F" stroke="#D32F2F" stroke-width="2" stroke-linecap="round" stroke-linejoin="round"/>
</svg>
