<svg width="14" height="14" viewBox="0 0 14 14" fill="none" xmlns="http://www.w3.org/2000/svg">
<path d="M1.20272 7.20297C1.15411 7.072 1.15411 6.92793 1.20272 6.79697C1.67621 5.64888 2.47994 4.66724 3.512 3.97649C4.54407 3.28574 5.758 2.91699 6.99989 2.91699C8.24178 2.91699 9.45571 3.28574 10.4878 3.97649C11.5198 4.66724 12.3236 5.64888 12.7971 6.79697C12.8457 6.92793 12.8457 7.072 12.7971 7.20297C12.3236 8.35105 11.5198 9.33269 10.4878 10.0234C9.45571 10.7142 8.24178 11.0829 6.99989 11.0829C5.758 11.0829 4.54407 10.7142 3.512 10.0234C2.47994 9.33269 1.67621 8.35105 1.20272 7.20297Z" stroke="#434343" stroke-linecap="round" stroke-linejoin="round"/>
<path d="M7 8.75C7.9665 8.75 8.75 7.9665 8.75 7C8.75 6.0335 7.9665 5.25 7 5.25C6.0335 5.25 5.25 6.0335 5.25 7C5.25 7.9665 6.0335 8.75 7 8.75Z" stroke="#434343" stroke-linecap="round" stroke-linejoin="round"/>
</svg>
