<svg width="48" height="48" viewBox="0 0 48 48" fill="none" xmlns="http://www.w3.org/2000/svg">
<mask id="path-1-inside-1_1530_8929" fill="white">
<path d="M0 24C0 10.7452 10.7452 0 24 0V0C37.2548 0 48 10.7452 48 24V24C48 37.2548 37.2548 48 24 48V48C10.7452 48 0 37.2548 0 24V24Z"/>
</mask>
<g clip-path="url(#paint0_diamond_1530_8929_clip_path)" data-figma-skip-parse="true" mask="url(#path-1-inside-1_1530_8929)"><g transform="matrix(0.024 0 0 0.024 24 0)"><rect x="0" y="0" width="1166.67" height="2166.67" fill="url(#paint0_diamond_1530_8929)" opacity="1" shape-rendering="crispEdges"/><rect x="0" y="0" width="1166.67" height="2166.67" transform="scale(1 -1)" fill="url(#paint0_diamond_1530_8929)" opacity="1" shape-rendering="crispEdges"/><rect x="0" y="0" width="1166.67" height="2166.67" transform="scale(-1 1)" fill="url(#paint0_diamond_1530_8929)" opacity="1" shape-rendering="crispEdges"/><rect x="0" y="0" width="1166.67" height="2166.67" transform="scale(-1)" fill="url(#paint0_diamond_1530_8929)" opacity="1" shape-rendering="crispEdges"/></g></g><path d="M0 24M48 24M48 24M0 24M24 0M48 24M24 48M0 24M24 48V44C12.9543 44 4 35.0457 4 24H0H-4C-4 39.464 8.53603 52 24 52V48ZM48 24H44C44 35.0457 35.0457 44 24 44V48V52C39.464 52 52 39.464 52 24H48ZM24 0V4C35.0457 4 44 12.9543 44 24H48H52C52 8.53603 39.464 -4 24 -4V0ZM24 0V-4C8.53603 -4 -4 8.53603 -4 24H0H4C4 12.9543 12.9543 4 24 4V0Z" data-figma-gradient-fill="{&#34;type&#34;:&#34;GRADIENT_DIAMOND&#34;,&#34;stops&#34;:[{&#34;color&#34;:{&#34;r&#34;:0.10588235408067703,&#34;g&#34;:0.26274511218070984,&#34;b&#34;:0.19607843458652496,&#34;a&#34;:1.0},&#34;position&#34;:0.99999988079071045},{&#34;color&#34;:{&#34;r&#34;:0.75686275959014893,&#34;g&#34;:0.78431373834609985,&#34;b&#34;:0.76078432798385620,&#34;a&#34;:1.0},&#34;position&#34;:1.0}],&#34;stopsVar&#34;:[],&#34;transform&#34;:{&#34;m00&#34;:48.0,&#34;m01&#34;:0.0,&#34;m02&#34;:0.0,&#34;m10&#34;:0.0,&#34;m11&#34;:48.0,&#34;m12&#34;:-24.0},&#34;opacity&#34;:1.0,&#34;blendMode&#34;:&#34;NORMAL&#34;,&#34;visible&#34;:true}" mask="url(#path-1-inside-1_1530_8929)"/>
<defs>
<clipPath id="paint0_diamond_1530_8929_clip_path"><path d="M0 24M48 24M48 24M0 24M24 0M48 24M24 48M0 24M24 48V44C12.9543 44 4 35.0457 4 24H0H-4C-4 39.464 8.53603 52 24 52V48ZM48 24H44C44 35.0457 35.0457 44 24 44V48V52C39.464 52 52 39.464 52 24H48ZM24 0V4C35.0457 4 44 12.9543 44 24H48H52C52 8.53603 39.464 -4 24 -4V0ZM24 0V-4C8.53603 -4 -4 8.53603 -4 24H0H4C4 12.9543 12.9543 4 24 4V0Z"/></clipPath><linearGradient id="paint0_diamond_1530_8929" x1="0" y1="0" x2="500" y2="500" gradientUnits="userSpaceOnUse">
<stop offset="1" stop-color="#1B4332"/>
<stop offset="1" stop-color="#C1C8C2"/>
</linearGradient>
</defs>
</svg>
