<svg width="36" height="36" viewBox="0 0 36 36" fill="none" xmlns="http://www.w3.org/2000/svg">
<rect width="36" height="36" rx="10" fill="#1B4332"/>
<path d="M18.0002 9C17.2045 9 16.4415 9.31607 15.8789 9.87868C15.3162 10.4413 15.0002 11.2044 15.0002 12V16C15.0002 16.7956 15.3162 17.5587 15.8789 18.1213C16.4415 18.6839 17.2045 19 18.0002 19C18.7958 19 19.5589 18.6839 20.1215 18.1213C20.6841 17.5587 21.0002 16.7956 21.0002 16V12C21.0002 11.2044 20.6841 10.4413 20.1215 9.87868C19.5589 9.31607 18.7958 9 18.0002 9ZM18.0002 7C18.6568 7 19.307 7.12933 19.9136 7.3806C20.5202 7.63188 21.0714 8.00017 21.5357 8.46447C22 8.92876 22.3683 9.47995 22.6196 10.0866C22.8708 10.6932 23.0002 11.3434 23.0002 12V16C23.0002 17.3261 22.4734 18.5979 21.5357 19.5355C20.598 20.4732 19.3263 21 18.0002 21C16.6741 21 15.4023 20.4732 14.4646 19.5355C13.527 18.5979 13.0002 17.3261 13.0002 16V12C13.0002 10.6739 13.527 9.40215 14.4646 8.46447C15.4023 7.52678 16.6741 7 18.0002 7ZM9.05518 17H11.0702C11.3125 18.6648 12.146 20.1867 13.4184 21.2873C14.6908 22.3879 16.3169 22.9936 17.9992 22.9936C19.6815 22.9936 21.3076 22.3879 22.5799 21.2873C23.8523 20.1867 24.6859 18.6648 24.9282 17H26.9442C26.7168 19.0287 25.8068 20.9199 24.3634 22.3635C22.92 23.8071 21.0289 24.7174 19.0002 24.945V29H17.0002V24.945C14.9713 24.7176 13.08 23.8074 11.6364 22.3638C10.1927 20.9202 9.28259 19.0289 9.05518 17Z" fill="white"/>
</svg>
