<svg width="30" height="30" viewBox="0 0 30 30" fill="none" xmlns="http://www.w3.org/2000/svg">
<rect width="30" height="30" rx="7" fill="#1B4332" fill-opacity="0.1"/>
<path d="M6.96436 11.4283L12.781 15.3067C13.5835 15.8408 13.9844 16.1083 14.4177 16.2125C14.801 16.3042 15.2002 16.3042 15.5827 16.2125C16.016 16.1083 16.4169 15.8408 17.2194 15.3067L23.036 11.4283M10.9644 21.25H19.036C20.436 21.25 21.136 21.25 21.671 20.9775C22.1411 20.7377 22.5232 20.3553 22.7627 19.885C23.036 19.35 23.036 18.65 23.036 17.25V12.75C23.036 11.35 23.036 10.65 22.7635 10.115C22.5238 9.64462 22.1414 9.26218 21.671 9.0225C21.136 8.75 20.436 8.75 19.036 8.75H10.9644C9.56436 8.75 8.86436 8.75 8.32936 9.0225C7.85928 9.26232 7.47715 9.64474 7.23769 10.115C6.96436 10.65 6.96436 11.35 6.96436 12.75V17.25C6.96436 18.65 6.96436 19.35 7.23686 19.885C7.47654 20.3554 7.85897 20.7378 8.32936 20.9775C8.86436 21.25 9.56436 21.25 10.9644 21.25Z" stroke="#1B4332" stroke-width="1.5" stroke-linecap="round" stroke-linejoin="round"/>
</svg>
