<svg width="16" height="16" viewBox="0 0 16 16" fill="none" xmlns="http://www.w3.org/2000/svg">
<path d="M4.01936 2.85701C3.81703 2.73561 3.58612 2.67008 3.35018 2.6671C3.11425 2.66412 2.88175 2.72381 2.67643 2.84006C2.4711 2.95631 2.3003 3.12497 2.18147 3.32882C2.06264 3.53266 2.00003 3.76439 2.00003 4.00034V12.0003C2.00003 12.2363 2.06264 12.468 2.18147 12.6719C2.3003 12.8757 2.4711 13.0444 2.67643 13.1606C2.88175 13.2769 3.11425 13.3366 3.35018 13.3336C3.58612 13.3306 3.81703 13.2651 4.01936 13.1437L10.684 9.14501C10.8819 9.0268 11.0457 8.85932 11.1595 8.65892C11.2734 8.45852 11.3333 8.23204 11.3335 8.00157C11.3337 7.7711 11.2742 7.54451 11.1607 7.34392C11.0472 7.14332 10.8837 6.97556 10.686 6.85701L4.01936 2.85701Z" fill="#1B4332" stroke="#1B4332" stroke-width="2" stroke-linecap="round" stroke-linejoin="round"/>
<path d="M14 13.3337V2.66699" stroke="#1B4332" stroke-width="2" stroke-linecap="round" stroke-linejoin="round"/>
</svg>
