<svg width="18" height="18" viewBox="0 0 18 18" fill="none" xmlns="http://www.w3.org/2000/svg">
<path d="M16.5 17.6875L13.75 14.9375H2.79167C2.33333 14.9375 1.94097 14.7743 1.61458 14.4479C1.28819 14.1215 1.125 13.7292 1.125 13.2708V3.27083C1.125 2.8125 1.28819 2.42014 1.61458 2.09375C1.94097 1.76736 2.33333 1.60417 2.79167 1.60417V3.97917L0 1.1875L1.1875 0L17.6875 16.5L16.5 17.6875ZM2.79167 13.2708H12.0833L3.75 4.9375H2.79167V13.2708ZM17.6042 14.0417L16.125 12.5625V4.9375H8.5L5.16667 1.60417H16.125C16.5833 1.60417 16.9757 1.76736 17.3021 2.09375C17.6285 2.42014 17.7917 2.8125 17.7917 3.27083V13.2708C17.7917 13.4097 17.7778 13.5451 17.75 13.6771C17.7222 13.809 17.6736 13.9306 17.6042 14.0417Z" fill="#012D1D"/>
</svg>
