<svg width="40" height="40" viewBox="0 0 40 40" fill="none" xmlns="http://www.w3.org/2000/svg">
<rect width="40" height="40" rx="20" fill="#1B4332"/>
<path d="M14.6663 15.3337C14.6662 15.0991 14.728 14.8687 14.8455 14.6656C14.963 14.4625 15.132 14.2941 15.3354 14.1772C15.5389 14.0603 15.7695 13.9992 16.0041 14C16.2387 14.0008 16.469 14.0635 16.6716 14.1817L24.6696 18.8471C24.8714 18.9642 25.039 19.1322 25.1556 19.3344C25.2721 19.5366 25.3335 19.7658 25.3338 19.9992C25.334 20.2325 25.2729 20.4618 25.1567 20.6642C25.0405 20.8666 24.8732 21.0349 24.6716 21.1524L16.6716 25.8191C16.469 25.9373 16.2387 26 16.0041 26.0008C15.7695 26.0016 15.5389 25.9405 15.3354 25.8236C15.132 25.7067 14.963 25.5383 14.8455 25.3352C14.728 25.1321 14.6662 24.9017 14.6663 24.6671V15.3337Z" fill="white"/>
</svg>
