<svg width="28" height="28" viewBox="0 0 28 28" fill="none" xmlns="http://www.w3.org/2000/svg">
<path d="M13.9999 25.6673C20.4432 25.6673 25.6666 20.444 25.6666 14.0007C25.6666 7.55733 20.4432 2.33398 13.9999 2.33398C7.5566 2.33398 2.33325 7.55733 2.33325 14.0007C2.33325 20.444 7.5566 25.6673 13.9999 25.6673Z" stroke="#409462" stroke-width="2" stroke-linecap="round" stroke-linejoin="round"/>
<path d="M14 15.166C15.933 15.166 17.5 13.599 17.5 11.666C17.5 9.73302 15.933 8.16602 14 8.16602C12.067 8.16602 10.5 9.73302 10.5 11.666C10.5 13.599 12.067 15.166 14 15.166Z" stroke="#409462" stroke-width="2" stroke-linecap="round" stroke-linejoin="round"/>
<path d="M8.16675 24.1063V22.1673C8.16675 21.5485 8.41258 20.955 8.85017 20.5174C9.28775 20.0798 9.88124 19.834 10.5001 19.834H17.5001C18.1189 19.834 18.7124 20.0798 19.15 20.5174C19.5876 20.955 19.8334 21.5485 19.8334 22.1673V24.1063" stroke="#409462" stroke-width="2" stroke-linecap="round" stroke-linejoin="round"/>
</svg>
