<svg width="16" height="16" viewBox="0 0 16 16" fill="none" xmlns="http://www.w3.org/2000/svg">
<path d="M11.9806 2.85701C12.183 2.73561 12.4139 2.67008 12.6498 2.6671C12.8858 2.66412 13.1182 2.72381 13.3236 2.84006C13.5289 2.95631 13.6997 3.12497 13.8185 3.32882C13.9374 3.53266 14 3.76439 14 4.00034V12.0003C14 12.2363 13.9374 12.468 13.8185 12.6719C13.6997 12.8757 13.5289 13.0444 13.3236 13.1606C13.1182 13.2769 12.8858 13.3366 12.6498 13.3336C12.4139 13.3306 12.183 13.2651 11.9806 13.1437L5.31597 9.14501C5.11812 9.0268 4.9543 8.85932 4.84047 8.65892C4.72664 8.45852 4.66671 8.23204 4.6665 8.00157C4.6663 7.7711 4.72584 7.54451 4.83932 7.34392C4.9528 7.14332 5.11633 6.97556 5.31397 6.85701L11.9806 2.85701Z" fill="#1B4332" stroke="#1B4332" stroke-width="2" stroke-linecap="round" stroke-linejoin="round"/>
<path d="M2 13.3337V2.66699" stroke="#1B4332" stroke-width="2" stroke-linecap="round" stroke-linejoin="round"/>
</svg>
