<svg width="20" height="20" viewBox="0 0 20 20" fill="none" xmlns="http://www.w3.org/2000/svg">
<path d="M9.83333 4.34167V4.33333V5.16667M9.83333 10.1667V10.175M9.83333 10.1667C9.3734 10.1667 9 9.79326 9 9.33333C9 8.8734 9.3734 8.5 9.83333 8.5C10.2933 8.5 10.6667 8.8734 10.6667 9.33333C10.6667 9.79326 10.2933 10.1667 9.83333 10.1667ZM9.83333 16V16.0083M9.83333 16C9.3734 16 9 15.6266 9 15.1667C9 14.7067 9.3734 14.3333 9.83333 14.3333C10.2933 14.3333 10.6667 14.7067 10.6667 15.1667C10.6667 15.6266 10.2933 16 9.83333 16ZM9.83333 5.16667C9.3734 5.16667 9 4.79326 9 4.33333C9 3.8734 9.3734 3.5 9.83333 3.5C10.2933 3.5 10.6667 3.8734 10.6667 4.33333C10.6667 4.79326 10.2933 5.16667 9.83333 5.16667Z" stroke="#B5B0A6" stroke-width="1.66667" stroke-linecap="round" stroke-linejoin="round"/>
</svg>
