<svg width="48" height="48" viewBox="0 0 48 48" fill="none" xmlns="http://www.w3.org/2000/svg">
<rect width="48" height="48" rx="24" fill="#E8E8E5"/>
<path d="M15.7974 30.7974C16.9307 29.9307 18.1974 29.2474 19.5974 28.7474C20.9974 28.2474 22.4641 27.9974 23.9974 27.9974C25.5307 27.9974 26.9974 28.2474 28.3974 28.7474C29.7974 29.2474 31.0641 29.9307 32.1974 30.7974C32.9752 29.8863 33.5807 28.853 34.0141 27.6974C34.4474 26.5418 34.6641 25.3085 34.6641 23.9974C34.6641 21.0418 33.6252 18.5252 31.5474 16.4474C29.4696 14.3696 26.953 13.3307 23.9974 13.3307C21.0418 13.3307 18.5252 14.3696 16.4474 16.4474C14.3696 18.5252 13.3307 21.0418 13.3307 23.9974C13.3307 25.3085 13.5474 26.5418 13.9807 27.6974C14.4141 28.853 15.0196 29.8863 15.7974 30.7974ZM23.9974 25.3307C22.6863 25.3307 21.5807 24.8807 20.6807 23.9807C19.7807 23.0807 19.3307 21.9752 19.3307 20.6641C19.3307 19.353 19.7807 18.2474 20.6807 17.3474C21.5807 16.4474 22.6863 15.9974 23.9974 15.9974C25.3085 15.9974 26.4141 16.4474 27.3141 17.3474C28.2141 18.2474 28.6641 19.353 28.6641 20.6641C28.6641 21.9752 28.2141 23.0807 27.3141 23.9807C26.4141 24.8807 25.3085 25.3307 23.9974 25.3307ZM23.9974 37.3307C22.153 37.3307 20.4196 36.9807 18.7974 36.2807C17.1752 35.5807 15.7641 34.6307 14.5641 33.4307C13.3641 32.2307 12.4141 30.8196 11.7141 29.1974C11.0141 27.5752 10.6641 25.8418 10.6641 23.9974C10.6641 22.153 11.0141 20.4196 11.7141 18.7974C12.4141 17.1752 13.3641 15.7641 14.5641 14.5641C15.7641 13.3641 17.1752 12.4141 18.7974 11.7141C20.4196 11.0141 22.153 10.6641 23.9974 10.6641C25.8418 10.6641 27.5752 11.0141 29.1974 11.7141C30.8196 12.4141 32.2307 13.3641 33.4307 14.5641C34.6307 15.7641 35.5807 17.1752 36.2807 18.7974C36.9807 20.4196 37.3307 22.153 37.3307 23.9974C37.3307 25.8418 36.9807 27.5752 36.2807 29.1974C35.5807 30.8196 34.6307 32.2307 33.4307 33.4307C32.2307 34.6307 30.8196 35.5807 29.1974 36.2807C27.5752 36.9807 25.8418 37.3307 23.9974 37.3307ZM23.9974 34.6641C25.1752 34.6641 26.2863 34.4918 27.3307 34.1474C28.3752 33.803 29.3307 33.3085 30.1974 32.6641C29.3307 32.0196 28.3752 31.5252 27.3307 31.1807C26.2863 30.8363 25.1752 30.6641 23.9974 30.6641C22.8196 30.6641 21.7085 30.8363 20.6641 31.1807C19.6196 31.5252 18.6641 32.0196 17.7974 32.6641C18.6641 33.3085 19.6196 33.803 20.6641 34.1474C21.7085 34.4918 22.8196 34.6641 23.9974 34.6641ZM23.9974 22.6641C24.5752 22.6641 25.053 22.4752 25.4307 22.0974C25.8085 21.7196 25.9974 21.2418 25.9974 20.6641C25.9974 20.0863 25.8085 19.6085 25.4307 19.2307C25.053 18.853 24.5752 18.6641 23.9974 18.6641C23.4196 18.6641 22.9418 18.853 22.5641 19.2307C22.1863 19.6085 21.9974 20.0863 21.9974 20.6641C21.9974 21.2418 22.1863 21.7196 22.5641 22.0974C22.9418 22.4752 23.4196 22.6641 23.9974 22.6641Z" fill="#BA1A1A"/>
</svg>
