<svg width="18" height="21" viewBox="0 0 18 21" fill="none" xmlns="http://www.w3.org/2000/svg">
<path d="M4.5 15V13.5H7V12.5H5.5V11.5H7V10.5H4.5V9H7.5C7.78333 9 8.02083 9.09583 8.2125 9.2875C8.40417 9.47917 8.5 9.71667 8.5 10V14C8.5 14.2833 8.40417 14.5208 8.2125 14.7125C8.02083 14.9042 7.78333 15 7.5 15H4.5ZM10.5 15C10.2167 15 9.97917 14.9042 9.7875 14.7125C9.59583 14.5208 9.5 14.2833 9.5 14V10C9.5 9.71667 9.59583 9.47917 9.7875 9.2875C9.97917 9.09583 10.2167 9 10.5 9H12.5C12.7833 9 13.0208 9.09583 13.2125 9.2875C13.4042 9.47917 13.5 9.71667 13.5 10V14C13.5 14.2833 13.4042 14.5208 13.2125 14.7125C13.0208 14.9042 12.7833 15 12.5 15H10.5ZM11 13.5H12V10.5H11V13.5ZM9 21C7.75 21 6.57917 20.7625 5.4875 20.2875C4.39583 19.8125 3.44583 19.1708 2.6375 18.3625C1.82917 17.5542 1.1875 16.6042 0.7125 15.5125C0.2375 14.4208 0 13.25 0 12C0 10.75 0.2375 9.57917 0.7125 8.4875C1.1875 7.39583 1.82917 6.44583 2.6375 5.6375C3.44583 4.82917 4.39583 4.1875 5.4875 3.7125C6.57917 3.2375 7.75 3 9 3H9.15L7.6 1.45L9 0L13 4L9 8L7.6 6.55L9.15 5H9C7.05 5 5.39583 5.67917 4.0375 7.0375C2.67917 8.39583 2 10.05 2 12C2 13.95 2.67917 15.6042 4.0375 16.9625C5.39583 18.3208 7.05 19 9 19C10.95 19 12.6042 18.3208 13.9625 16.9625C15.3208 15.6042 16 13.95 16 12H18C18 13.25 17.7625 14.4208 17.2875 15.5125C16.8125 16.6042 16.1708 17.5542 15.3625 18.3625C14.5542 19.1708 13.6042 19.8125 12.5125 20.2875C11.4208 20.7625 10.25 21 9 21Z" fill="#1B4332"/>
</svg>
