<svg width="24" height="24" viewBox="0 0 24 24" fill="none" xmlns="http://www.w3.org/2000/svg">
<rect width="24" height="24" rx="12" fill="#B9EAD5"/>
<path d="M11.0666 15.0673L15.7666 10.3673L14.8333 9.43398L11.0666 13.2007L9.16659 11.3007L8.23325 12.234L11.0666 15.0673ZM11.9999 18.6673C11.0777 18.6673 10.211 18.4923 9.39992 18.1423C8.58881 17.7923 7.88325 17.3173 7.28325 16.7173C6.68325 16.1173 6.20825 15.4118 5.85825 14.6007C5.50825 13.7895 5.33325 12.9229 5.33325 12.0007C5.33325 11.0784 5.50825 10.2118 5.85825 9.40065C6.20825 8.58954 6.68325 7.88398 7.28325 7.28398C7.88325 6.68398 8.58881 6.20898 9.39992 5.85898C10.211 5.50898 11.0777 5.33398 11.9999 5.33398C12.9221 5.33398 13.7888 5.50898 14.5999 5.85898C15.411 6.20898 16.1166 6.68398 16.7166 7.28398C17.3166 7.88398 17.7916 8.58954 18.1416 9.40065C18.4916 10.2118 18.6666 11.0784 18.6666 12.0007C18.6666 12.9229 18.4916 13.7895 18.1416 14.6007C17.7916 15.4118 17.3166 16.1173 16.7166 16.7173C16.1166 17.3173 15.411 17.7923 14.5999 18.1423C13.7888 18.4923 12.9221 18.6673 11.9999 18.6673Z" fill="#3E6B5B"/>
</svg>
