<svg width="16" height="16" viewBox="0 0 16 16" fill="none" xmlns="http://www.w3.org/2000/svg">
<path d="M7.33325 3.13436C7.33312 3.0415 7.30548 2.95076 7.25383 2.8736C7.20217 2.79643 7.12882 2.7363 7.04302 2.70078C6.95722 2.66526 6.86283 2.65595 6.77175 2.67403C6.68066 2.69211 6.59698 2.73677 6.53125 2.80236L4.27525 5.05769C4.18819 5.14528 4.08461 5.21471 3.97051 5.26198C3.85642 5.30924 3.73408 5.33339 3.61058 5.33303H1.99992C1.82311 5.33303 1.65354 5.40326 1.52851 5.52829C1.40349 5.65331 1.33325 5.82288 1.33325 5.99969V9.99969C1.33325 10.1765 1.40349 10.3461 1.52851 10.4711C1.65354 10.5961 1.82311 10.6664 1.99992 10.6664H3.61058C3.73408 10.666 3.85642 10.6901 3.97051 10.7374C4.08461 10.7847 4.18819 10.8541 4.27525 10.9417L6.53058 13.1977C6.59632 13.2636 6.68012 13.3084 6.77138 13.3266C6.86264 13.3448 6.95724 13.3355 7.0432 13.2999C7.12916 13.2642 7.20262 13.2039 7.25425 13.1265C7.30589 13.0491 7.33338 12.9581 7.33325 12.865V3.13436Z" fill="#1B4332" stroke="#1B4332" stroke-width="2" stroke-linecap="round" stroke-linejoin="round"/>
<path d="M10.6667 6C11.0995 6.57699 11.3334 7.27877 11.3334 8C11.3334 8.72123 11.0995 9.42301 10.6667 10" stroke="#1B4332" stroke-width="2" stroke-linecap="round" stroke-linejoin="round"/>
<path d="M12.9094 12.2431C13.4666 11.686 13.9085 11.0246 14.2101 10.2966C14.5116 9.56864 14.6668 8.78842 14.6668 8.00048C14.6668 7.21254 14.5116 6.43232 14.2101 5.70436C13.9085 4.9764 13.4666 4.31496 12.9094 3.75781" stroke="#1B4332" stroke-width="2" stroke-linecap="round" stroke-linejoin="round"/>
</svg>
