<svg width="20" height="20" viewBox="0 0 20 20" fill="none" xmlns="http://www.w3.org/2000/svg">
<g clip-path="url(#clip0_1530_8841)">
<path d="M19.5817 5.15396C19.3517 4.28779 18.678 3.6096 17.8133 3.37396C16.2542 2.95312 10 2.95312 10 2.95312C10 2.95312 3.74583 2.95312 2.18583 3.37396C1.32161 3.61001 0.648284 4.28809 0.418333 5.15396C0 6.72396 0 9.99896 0 9.99896C0 9.99896 0 13.274 0.418333 14.844C0.64828 15.7101 1.32203 16.3883 2.18667 16.624C3.74583 17.0448 10.0008 17.0448 10.0008 17.0448C10.0008 17.0448 16.255 17.0448 17.815 16.624C18.6797 16.3885 19.3535 15.7102 19.5833 14.844C20 13.274 20 9.99896 20 9.99896C20 9.99896 20 6.72396 19.5817 5.15396ZM7.95417 12.9723V7.02562L13.1817 9.99896L7.95417 12.9723Z" fill="white"/>
</g>
<defs>
<clipPath id="clip0_1530_8841">
<rect width="20" height="20" fill="white"/>
</clipPath>
</defs>
</svg>
